<svg width="151" height="138" viewBox="0 0 151 138" fill="none" xmlns="http://www.w3.org/2000/svg">
<circle cx="82.7983" cy="72.7798" r="65" fill="#0098FF"/>
<path d="M97.8571 67.4085C99.4528 67.4085 100.814 66.845 101.941 65.7181C103.068 64.591 103.632 63.2297 103.632 61.634C103.632 60.0383 103.068 58.677 101.941 57.5499C100.814 56.423 99.4528 55.8595 97.8571 55.8595C96.2614 55.8595 94.9043 56.4201 93.7856 57.5412C92.667 58.6623 92.1077 60.0237 92.1077 61.6252C92.1077 63.2268 92.6666 64.591 93.7845 65.7181C94.9025 66.845 96.2601 67.4085 97.8571 67.4085ZM67.7394 67.4085C69.3351 67.4085 70.6923 66.8479 71.811 65.7268C72.9296 64.6057 73.4889 63.2443 73.4889 61.6427C73.4889 60.0412 72.93 58.677 71.812 57.5499C70.694 56.423 69.3365 55.8595 67.7394 55.8595C66.1437 55.8595 64.7824 56.423 63.6554 57.5499C62.5284 58.677 61.965 60.0383 61.965 61.634C61.965 63.2297 62.5284 64.591 63.6554 65.7181C64.7824 66.845 66.1437 67.4085 67.7394 67.4085ZM82.7983 95.5923C87.3816 95.5923 91.6004 94.3597 95.4545 91.8944C98.1197 90.1897 100.278 88.0616 101.931 85.5102C103.005 83.8521 101.675 81.8423 99.6991 81.8423C98.7089 81.8423 97.8085 82.3806 97.2337 83.187C95.7738 85.2354 93.9155 86.8562 91.6588 88.0493C88.9291 89.4926 85.992 90.2142 82.8477 90.2142C79.7034 90.2142 76.754 89.5099 73.9996 88.1014C71.7374 86.9445 69.9001 85.3304 68.4877 83.2591C67.912 82.4148 66.9894 81.8423 65.9674 81.8423C63.9722 81.8423 62.6412 83.885 63.7413 85.5497C65.4157 88.0836 67.5667 90.1985 70.1941 91.8944C74.0136 94.3597 78.215 95.5923 82.7983 95.5923ZM82.7996 115.069C76.9518 115.069 71.4558 113.963 66.3116 111.751C61.1675 109.538 56.6872 106.524 52.8708 102.707C49.0543 98.8909 46.0399 94.4111 43.8275 89.2679C41.6151 84.1246 40.5089 78.629 40.5089 72.7812C40.5089 66.9333 41.6151 61.4373 43.8275 56.2932C46.0399 51.149 49.053 46.6683 52.8668 42.851C56.6806 39.0337 61.1598 36.0151 66.3043 33.7952C71.4488 31.5754 76.9456 30.4655 82.7948 30.4655C88.6441 30.4655 94.1418 31.5748 99.2879 33.7934C104.434 36.0119 108.915 39.0287 112.731 42.8438C116.547 46.6589 119.565 51.1396 121.784 56.2858C124.003 61.432 125.113 66.9307 125.113 72.7819C125.113 78.6321 124.003 84.1291 121.783 89.273C119.563 94.4168 116.544 98.896 112.727 102.71C108.91 106.525 104.43 109.538 99.2863 111.751C94.143 113.963 88.6475 115.069 82.7996 115.069ZM82.7983 107.972C92.619 107.972 100.94 104.562 107.76 97.7416C114.581 90.9211 117.991 82.6005 117.991 72.7798C117.991 62.9591 114.581 54.6385 107.76 47.8181C100.94 40.9976 92.619 37.5873 82.7983 37.5873C72.9776 37.5873 64.657 40.9976 57.8365 47.8181C51.016 54.6385 47.6058 62.9591 47.6058 72.7798C47.6058 82.6005 51.016 90.9211 57.8365 97.7416C64.657 104.562 72.9776 107.972 82.7983 107.972Z" fill="white"/>
<path d="M98.526 4.42716C99.9622 2.1557 107.585 -1.17387 110.603 2.96504C114.233 7.94278 114.845 7.89325 120.363 5.00682C120.797 4.78019 121.306 4.71201 121.773 4.85468C127.936 6.73439 123.65 10.7297 126.738 15.9828C126.913 16.2807 127.178 16.5217 127.499 16.6506C132.428 18.6336 136.123 12.0463 141.382 15.6034C141.821 15.9006 142.087 16.3985 142.048 16.9275C141.754 20.8885 137.927 28.9667 143.943 29.7008C150.414 30.4906 148.924 41.4349 146.404 41.8228" stroke="#0098FF" stroke-width="2" stroke-linecap="round"/>
<path d="M10.8569 74.7624C8.36151 75.7601 3.69711 82.6477 7.21594 86.3703C11.4479 90.8473 11.2877 91.4394 7.44285 96.3391C7.14096 96.7238 6.98108 97.2118 7.03602 97.6977C7.75986 104.1 12.47 100.615 17.0717 104.609C17.3326 104.836 17.5213 105.14 17.5896 105.479C18.6399 110.688 11.4891 113.118 14.0271 118.938C14.2391 119.424 14.6801 119.777 15.2074 119.834C19.1555 120.268 27.7963 117.979 27.4207 124.028C27.0166 130.534 38.0492 131.066 38.8903 128.659" stroke="#0098FF" stroke-width="2" stroke-linecap="round"/>
</svg>
